<?xml version="1.0" encoding="utf-8"?>
<!-- Generator: Adobe Illustrator 27.3.1, SVG Export Plug-In . SVG Version: 6.00 Build 0)  -->
<svg version="1.1" id="Layer_1" xmlns="http://www.w3.org/2000/svg" xmlns:xlink="http://www.w3.org/1999/xlink" x="0px" y="0px"
	 viewBox="0 0 2796 823.4" style="enable-background:new 0 0 2796 823.4;" xml:space="preserve">
<style type="text/css">
	.st0{fill:#D65B5B;}
</style>
<g>
	<path d="M2003.3,411.7c0-71.2,0-142.3,0-213.5c0-8.7,1.2-9.9,9.7-9.9c42.1,0,84.2-0.5,126.3,0.2c17.7,0.3,35.4,2.7,53.1,4.8
		c13.7,1.7,27.4,3.7,40.8,6.9c21,5,40.6,13.5,58.7,25.6c18.7,12.4,34.6,27.8,47.7,45.7c9.5,13,17.7,27.3,24.5,41.9
		c6.5,13.9,11.6,28.6,15.3,43.5c3.4,13.5,4.3,27.6,5.8,41.5c0.9,8.8,1.7,17.8,1.1,26.6c-0.9,13.3-2.6,26.6-4.8,39.8
		c-1.8,10.6-4.2,21.1-7.6,31.3c-3.7,10.8-8.2,21.4-13.4,31.6c-9.8,19.3-22.5,36.5-38.4,51.5c-16.4,15.5-34.5,28.4-55.1,37.4
		c-16.1,7.1-33.1,11.8-50.8,13.1c-21.4,1.5-42.7,3.3-64.1,4.2c-20.7,0.9-41.4,1.2-62.1,1.3c-25.7,0.2-51.4,0-77.1,0.1
		c-8.7,0-9.4-0.7-9.4-9.3C2003.3,554.4,2003.3,483.1,2003.3,411.7z M2096.1,411.1c0,44.5,0.1,89-0.1,133.5c0,4.2,1,5.5,5.4,5.4
		c19-0.3,38.1,0.1,57.1-0.2c19.9-0.4,39.6-2.6,58.8-8.6c17.7-5.5,31.6-16,43.3-29.7c18.6-21.7,27.6-47.6,29.5-75.7
		c2.1-30.6,1-60.9-12.4-89.6c-8.3-17.8-19.7-33-35.2-44.9c-14.7-11.3-31.7-17.6-49.6-22.2c-18.9-4.9-38.2-5.8-57.4-7.2
		c-10.8-0.8-21.7,0.3-32.5-0.3c-6-0.3-7,1.8-7,7C2096.2,322.8,2096.1,366.9,2096.1,411.1z"/>
	<path d="M825.7,635.1c-6.1,0-10.8,0-15.5,0c-24.4,0-48.8-0.2-73.2,0.1c-5,0.1-8-1.7-9.7-5.9c-4.9-11.8-9.5-23.7-14.4-35.5
		c-5-12.1-10.1-24.2-15.2-36.3c-1.2-2.9-2.9-5.8-3.6-8.8c-1-4.7-4-4.9-7.9-4.9c-59.6,0.1-119.3,0.2-178.9,0c-7,0-11.2,1-13.9,8.8
		c-4,12-10.2,23.3-15.2,35c-5.7,13.1-11.3,26.3-16.6,39.6c-1.7,4.2-4.3,5.9-8.6,5.9c-27.4,0-54.9,0-82.3,0c-5.8,0-5.5-3.9-4.5-7.4
		c2-6.4,4.5-12.7,7-19c5-12.2,10.2-24.2,15.2-36.4c4.9-11.6,9.8-23.2,14.6-34.9c7.3-17.7,14.6-35.5,22-53.2
		c6.1-14.5,12.6-28.9,18.6-43.5c4.8-11.6,9.1-23.4,13.9-35.1c3.9-9.6,8.1-19,12-28.5c4.1-9.9,7.9-19.9,12-29.8
		c4.6-11.1,9.3-22.2,13.9-33.2c4.1-9.8,8.2-19.7,12.3-29.6c4.7-11.2,9.4-22.4,14.2-33.7c4-9.5,8-19,12.1-28.5
		c2.8-6.5,5.8-13,8.7-19.5c0.8-1.7,1.5-3.5,2-5.3c1.1-4.4,3.8-6.9,8.4-6.9c27.6-0.1,55.2-0.1,82.9,0.2c2.2,0,5.6,2.2,6.5,4.2
		c8.1,18,15.9,36,23.5,54.2c9.4,22.5,18.2,45.2,27.6,67.8c6,14.6,12.6,28.9,18.7,43.4c6,14.4,11.6,28.9,17.5,43.3
		c3.9,9.6,7.9,19.1,11.8,28.6c4.8,11.8,9.6,23.6,14.5,35.3c4,9.7,8.4,19.2,12.4,28.9c3.8,9.2,7.2,18.5,11,27.7
		c4.8,11.8,9.9,23.5,14.8,35.3c5,11.9,9.9,23.9,14.8,35.8c4.8,11.6,9.8,23.2,14.6,34.8C824.5,630.2,824.9,632.2,825.7,635.1z
		 M656.6,458.3c-20.6-49.4-40.7-97.9-61.2-147.1c-1.3,2-2.4,3.3-3.1,4.8c-4.9,11.6-9.8,23.2-14.6,34.8c-3.9,9.2-7.6,18.4-11.6,27.6
		c-4.8,11.3-9.8,22.4-14.6,33.7c-5.5,13-10.6,26.1-16.1,39c-2.6,6-1.9,7.5,4.5,7.5c37.1,0,74.2,0,111.4,0
		C652.6,458.7,653.9,458.5,656.6,458.3z"/>
	<path d="M1851,345.8c0-49.9,0-99.7,0-149.6c0-8,0-8,7.8-8c26.1,0,52.2,0,78.3,0c5.9,0,7.7,1.7,8,7.6c0.1,1.1,0,2.3,0,3.4
		c0,91.3,0.1,182.7-0.1,274c0,14.6-0.6,29.2-2.3,43.7c-2.8,24.4-9.8,47.3-25.4,67.2c-18.1,23.1-40.2,40.6-67.6,50.8
		c-17.4,6.5-35.5,10.6-54.3,10.2c-14.4-0.3-28.9,0.6-43.1-1.3c-38.3-4.9-71.5-20.7-98.1-49.4c-12.2-13.2-22.2-27.7-26-45.6
		c-2.8-13.2-5.7-26.5-7.6-39.8c-1.5-10.7-1.9-21.5-1.9-32.3c-0.1-92.1-0.1-184.2-0.1-276.3c0-1.9,0-3.8,0.1-5.7
		c0.1-4.4,1.9-6.4,6.7-6.3c26.5,0.2,53,0.2,79.4,0c4.9,0,6.5,1.9,6.4,6.3c-0.1,1.7,0,3.4,0,5.1c0,91-0.2,181.9,0.2,272.9
		c0.1,15.3,1.1,30.8,3.7,45.8c3.1,17.9,15,29.9,31.4,37.5c14.8,6.9,30.6,8.1,46.3,5.9c20.7-3,39.1-11.5,49.8-30.7
		c3.7-6.6,5-14.9,6.3-22.6c1.4-8.4,2.1-17,2.2-25.5C1851.1,437.6,1851,391.7,1851,345.8z"/>
	<path d="M2541.4,369.1c2.5,0,4.8,0,7.1,0c51.8,0,103.6,0,155.4,0c7.5,0,8.1,0.5,8.1,8.1c0,23-0.1,46.1,0.1,69.1
		c0.1,5.5-1.7,7.3-7.2,7.2c-52.2-0.2-104.4-0.1-156.6-0.1c-7.5,0-7.5,0-7.5,7.6c0,27.6,0.2,55.2-0.2,82.8c-0.1,5.6,1.8,6.6,6.8,6.6
		c52.4-0.1,104.8-0.1,157.2-0.1c7.2,0,7.6,0.3,7.6,7.2c0,23.4,0,46.8,0,70.2c0,7.2-0.2,7.4-7.3,7.4c-81.3,0-162.7,0-244,0
		c-2.1,0-4.5,0.6-6.2-0.3c-2.1-1.1-4.1-3.2-5.2-5.3c-0.8-1.5-0.2-3.7-0.2-5.6c0-141.2,0-282.4,0-423.6c0-1.1,0-2.3,0-3.4
		c0.1-7.7,0.8-8.6,8.6-8.6c82.9,0,165.7,0,248.6-0.1c4.4,0,5.8,2,5.8,5.7c0,24.7,0,49.5,0,74.2c0,5.1-3.3,5-7,5
		c-46.7,0-93.3,0-140,0c-6.7,0-13.3,0-20,0c-2.8,0-4.7,0.5-4.7,4c0.1,29.9,0.1,59.8,0.1,89.6C2540.7,367.2,2541,367.8,2541.4,369.1z
		"/>
	<path d="M1004.5,453.7c0,57.5,0,114.9,0,172.4c0,8.9,0,9-8.9,9c-25.7,0-51.4,0-77.1,0c-8.5,0-9.1-0.6-9.1-9.1
		c0-115.3,0-230.6,0.1-346c0-5.4-1.2-7.2-6.9-7.1c-22.9,0.3-45.7,0.2-68.6,0.1c-7.7,0-8-0.4-8-8.1c0-22.5-0.1-44.9,0-67.4
		c0-8.8,0.2-8.9,8.9-8.9c83.1,0,166.1,0,249.2,0c7.4,0,8,0.6,8,8.2c0,22.5,0,44.9,0,67.4c0,7.8-1,8.8-8.9,8.8
		c-24.2,0-48.4,0.1-72.6-0.1c-4.7,0-6.2,1.3-6.1,6.1C1004.5,337.3,1004.5,395.5,1004.5,453.7z"/>
	<path d="M1293.3,273.1c-0.2-2.7-0.4-4.6-0.4-6.5c0-23.8,0.1-47.6-0.1-71.4c0-5.4,1.5-7.2,7.1-7.2c84,0.2,168,0.1,252,0.1
		c7.5,0,8.1,0.6,8.1,8.2c0,23.4-0.1,46.8,0.1,70.2c0,5-1.5,6.6-6.5,6.5c-24.2-0.2-48.4-0.1-72.6-0.1c-8.1,0-8.1,0-8.1,7.8
		c0,114.8,0,229.5,0,344.3c0,7.9,0,7.9-8.2,7.9c-25.3,0-50.7,0-76,0c-1.9,0-3.9-0.3-5.7,0.2c-4.1,1.2-4.6-1.1-4.6-4.1
		c0-2.3,0-4.6,0-6.9c0-113.6,0-227.2,0-340.8c0-8.4,0-8.4-8.5-8.4c-23.4,0-46.9,0-70.3,0C1297.7,273.1,1295.8,273.1,1293.3,273.1z"
		/>
	<path d="M83.9,412.1c0-71,0-142,0-213c0-10.4,0.1-10.5,10.5-10.5c25,0,49.9,0.1,74.9-0.1c5.5-0.1,7.4,1.8,7.4,7.3
		c-0.1,116.3-0.1,232.6-0.1,348.8c0,1.1,0,2.3-0.2,3.4c-0.8,4.1,0.9,5.4,5,5.3c12.2-0.2,24.4-0.1,36.6-0.1c28.4,0,56.8,0.1,85.2-0.1
		c5.6,0,7.6,1.4,7.5,7.4c-0.3,22.1-0.1,44.1-0.1,66.2c0,7.3-1,8.3-8.1,8.3c-70.3,0-140.6,0-210.9,0c-7.4,0-7.6-0.1-7.6-7.8
		C83.9,555.6,83.9,483.8,83.9,412.1z"/>
	<path class="st0" d="M1259.2,631.5c-2.9-4.7-5.9-9.3-8.6-14c-9.7-17.3-19.2-34.6-28.8-52c-8.1-14.7-16.1-29.6-24.2-44.3
		c-10.5-19-21.3-37.8-31.5-57c-6.2-11.6-11.5-23.7-17-35.7c-0.9-2-1.4-4.4-1.4-6.6c-0.5-16.3-1.1-32.6-1.2-49
		c-0.1-58.4-0.1-116.8,0-175.2c0-2.1,0.3-4.2,0.4-6.3c0.5-0.1,1-0.2,1.5-0.3c3.6,6.3,7.3,12.5,10.8,18.9
		c9.1,16.5,18.2,33.1,27.3,49.6c11.1,20.2,22.1,40.4,33.2,60.5c10.4,18.9,21,37.6,31.4,56.5c6.3,11.6,9.9,24.2,9.9,37.4
		c0.1,70.4,0.1,140.8,0.1,211.2c0,1.9,0,3.7,0,5.6C1260.4,631,1259.8,631.3,1259.2,631.5z M1203.7,438.9c18-0.3,28.6-12,29.5-26.9
		c0.9-14.8-14-28.4-29.8-28.4c-14.6,0-29.5,13.8-28.9,27.6C1175.2,427.4,1185.7,438.2,1203.7,438.9z"/>
	<path class="st0" d="M1017.2,145.5c13.5-8.3,26.7-17.1,40.6-24.7c11.1-6,23-10.4,34.5-15.8c1.3-0.6,2.5-2.8,2.6-4.3
		c1.3-15.1,2.3-30.2,3.5-45.3c0-0.5,0.3-1,0.9-2.9c2.9,3.6,5.4,6.4,7.6,9.4c6.4,8.7,13.1,17.3,18.7,26.5c3.4,5.5,7.5,4.7,12.2,3.9
		c10.4-1.8,20.8-3.9,31.3-5.1C1180,86,1191,85.3,1202,85c7-0.2,14,0.4,21,1.1c13.6,1.3,27.4,1.6,40.5,5c8.4,2.1,11.3-1.3,14.9-6.6
		c7.5-10.9,15-21.8,23.6-34.2c1,5.3,2.1,9.4,2.4,13.5c0.9,10.9,1.8,21.9,2.2,32.9c0.1,4.2,1.9,6.4,5.5,7.5
		c25.1,8.2,47.7,21.3,69.7,35.5c3.6,2.3,6.9,5.1,10.1,8.4c-124.6-54.5-249.2-55.4-374-0.1C1017.7,147.1,1017.5,146.3,1017.2,145.5z"
		/>
	<path class="st0" d="M1391.2,678.3c-13.5,8.3-26.7,17.1-40.6,24.6c-11.1,6-23.1,10.4-34.5,15.7c-1.3,0.6-2.5,2.8-2.6,4.3
		c-1.3,15.1-2.4,30.2-3.5,45.2c0,0.5-0.3,1-0.9,2.9c-2.9-3.6-5.4-6.4-7.6-9.4c-6.4-8.8-13-17.3-18.7-26.5c-3.4-5.5-7.5-4.7-12.2-3.9
		c-10.4,1.7-20.8,3.8-31.3,5c-10.9,1.2-21.9,1.9-32.9,2.2c-7,0.2-14-0.4-21-1.1c-13.6-1.4-27.4-1.7-40.5-5c-8.4-2.2-11.3,1.3-15,6.6
		c-7.5,10.9-15,21.7-23.7,34.2c-1-5.3-2.1-9.4-2.4-13.5c-0.9-10.9-1.8-21.9-2.1-32.9c-0.1-4.2-1.9-6.4-5.5-7.5
		c-25.1-8.2-47.6-21.3-69.6-35.6c-3.6-2.3-6.9-5.1-10.1-8.4c124.5,54.7,249.1,55.8,374,0.6C1390.7,676.6,1390.9,677.5,1391.2,678.3z
		"/>
</g>
<path d="M2958.9-1313.3c-2.5,1.9-4.9,4-7.5,5.7c-19.9,13.3-40.4,25.4-62.9,33.8c-2.5,0.9-5.2,1.5-7.3,3c-1.4,1-2.8,3.1-2.9,4.8
	c-1,14-1.7,27.9-2.5,41.9c-0.1,1.1-0.4,2.1-0.9,5c-2.9-3.2-5.1-5.3-6.8-7.7c-6.7-9.4-13.4-18.8-19.8-28.5c-3.3-5-7.8-3.7-12.2-3.1
	c-12.5,1.7-25,3.9-37.6,5.4c-8.8,1.1-17.8,2-26.6,1.9c-13.8-0.2-27.7-1-41.5-2.3c-8.2-0.8-16.3-2.8-24.4-4.8c-4.2-1-6.4,0.5-8.5,3.6
	c-8.2,12-16.4,24-26.4,36.1c-0.8-5.5-1.8-10.9-2.3-16.4c-0.9-9.8-1.2-19.7-2.4-29.4c-0.3-2.3-3-5.2-5.4-6.3
	c-14-6.6-28.3-12.5-42.2-19.4c-3.7-1.9-6.1-6.5-10.4-11.3c4.6,0.4,8.1,0.2,11.2,1.1c14.6,4.4,29,9.8,43.7,13.6
	c12.9,3.4,26.2,5.6,39.4,7.8c13,2.1,26.2,4.4,39.3,5c18.8,0.8,37.6,0.4,56.5,0c9.2-0.2,18.5-1.4,27.7-2.7c9.1-1.3,18.2-3.2,27.3-5
	c6.9-1.3,13.7-2.5,20.5-4.1c8.4-2.1,16.9-4.2,25.1-6.9c13.6-4.5,27-9.6,40.5-14.5c6.3-2.3,12.6-4.7,18.9-7.1
	C2958.6-1313.7,2958.7-1313.5,2958.9-1313.3z"/>
<image style="overflow:visible;" width="2796" height="823" xlink:href="D:\1. CHAMELEONS STUDIO WORK\LOGO DESIGN\LATITUDE LOGO\latitude.png"  transform="matrix(1 0 0 1 -209.473 -1067.073)">
</image>
</svg>
