<?xml version="1.0" encoding="UTF-8" standalone="no" ?>
<!DOCTYPE svg PUBLIC "-//W3C//DTD SVG 1.1//EN" "http://www.w3.org/Graphics/SVG/1.1/DTD/svg11.dtd">
<svg xmlns="http://www.w3.org/2000/svg" xmlns:xlink="http://www.w3.org/1999/xlink" version="1.1" width="1080" height="1080" viewBox="0 0 1080 1080" xml:space="preserve">
<desc>Created with Fabric.js 5.2.4</desc>
<defs>
</defs>
<g transform="matrix(1 0 0 1 540 540)" id="a68f93ad-6b2a-4aef-bf94-76335785fa58"  >
<rect style="stroke: none; stroke-width: 1; stroke-dasharray: none; stroke-linecap: butt; stroke-dashoffset: 0; stroke-linejoin: miter; stroke-miterlimit: 4; fill: rgb(255,255,255); fill-rule: nonzero; opacity: 1; visibility: hidden;" vector-effect="non-scaling-stroke"  x="-540" y="-540" rx="0" ry="0" width="1080" height="1080" />
</g>
<g transform="matrix(1 0 0 1 540 540)" id="02d9f4a4-e06d-42a9-bf49-76b651c30992"  >
</g>
<g transform="matrix(1 0 0 1 415.73 652.44)"  >
<g style="" vector-effect="non-scaling-stroke"   >
		<g transform="matrix(1.33 0 0 1.33 -86.69 -9.05)"  >
<path style="stroke: none; stroke-width: 1; stroke-dasharray: none; stroke-linecap: butt; stroke-dashoffset: 0; stroke-linejoin: miter; stroke-miterlimit: 4; fill: rgb(255,255,255); fill-rule: nonzero; opacity: 1;" vector-effect="non-scaling-stroke"  transform=" translate(-111.24, -57.71)" d="M 112.84375 79.714844 C 112.839844 79.578125 112.6875 65.996094 111.386719 55.074219 C 110.234375 45.367188 108.402344 36.046875 108.382813 35.953125 L 109.609375 35.710938 C 109.628906 35.804688 111.46875 45.171875 112.628906 54.925781 C 113.9375 65.914063 114.089844 79.566406 114.09375 79.703125 L 112.84375 79.714844" stroke-linecap="round" />
</g>
		<g transform="matrix(0.13 0 0 -0.13 -170.55 -61.64)"  >
<path style="stroke: rgb(214,160,40); stroke-width: 12.5; stroke-dasharray: none; stroke-linecap: butt; stroke-dashoffset: 0; stroke-linejoin: miter; stroke-miterlimit: 10; fill: rgb(255,255,255); fill-rule: nonzero; opacity: 1;" vector-effect="non-scaling-stroke"  transform=" translate(-483.44, -1107.32)" d="M 271.796875 1042.421875 C 271.796875 1042.421875 411.5625 1097.421875 520.078125 1130 C 609.765625 1156.914063 695.078125 1172.226563 695.078125 1172.226563" stroke-linecap="round" />
</g>
		<g transform="matrix(1.33 0 0 1.33 -147.66 -4)"  >
<path style="stroke: none; stroke-width: 1; stroke-dasharray: none; stroke-linecap: butt; stroke-dashoffset: 0; stroke-linejoin: miter; stroke-miterlimit: 4; fill: rgb(255,255,255); fill-rule: evenodd; opacity: 1;" vector-effect="non-scaling-stroke"  transform=" translate(-65.51, -61.5)" d="M 116.007813 77 L 74.007813 100 L 24.007813 69 C 24.007813 69 23.988281 56.96875 25.007813 45 C 25.738281 36.421875 27.042969 27.867188 27.664063 24.058594 C 27.875 22.75 28.007813 22 28.007813 22 C 28.007813 22 38.941406 17.425781 50.007813 14 C 59.871094 10.945313 70.007813 9 70.007813 9 C 70.007813 9 81.320313 14.222656 92.007813 21 C 101.777344 27.195313 111.007813 35 111.007813 35 C 111.007813 35 113.726563 46.230469 115.007813 57 C 116.226563 67.21875 116.007813 77 116.007813 77 Z M 125.007813 58 C 123.136719 44.652344 119.007813 33 119.007813 33 C 119.007813 33 109.148438 23.210938 98.007813 16 C 83.984375 6.925781 68.007813 0 68.007813 0 C 68.007813 0 50.226563 3.429688 36.007813 8 C 22.230469 12.429688 12.007813 18 12.007813 18 C 12.007813 18 8.019531 33.417969 6.007813 49 C 4.019531 64.417969 4.007813 80 4.007813 80 C 4.007813 80 21.464844 92.90625 39.007813 104 C 55.425781 114.382813 72.007813 123 72.007813 123 C 72.007813 123 81.925781 118.96875 98.007813 109 C 112.195313 100.488281 127.007813 89 127.007813 89 C 127.007813 89 127.121094 73.046875 125.007813 58" stroke-linecap="round" />
</g>
		<g transform="matrix(1.33 0 0 1.33 -150.33 13.33)"  >
<path style="stroke: none; stroke-width: 1; stroke-dasharray: none; stroke-linecap: butt; stroke-dashoffset: 0; stroke-linejoin: miter; stroke-miterlimit: 4; fill: rgb(255,255,255); fill-rule: evenodd; opacity: 1;" vector-effect="non-scaling-stroke"  transform=" translate(-63.5, -74.5)" d="M 127.007813 91 C 127.007813 91 112.511719 101.652344 99.007813 110 C 85.019531 118.648438 71.007813 125 71.007813 125 C 71.007813 125 44.910156 109.992188 36.425781 104.585938 C 27.660156 98.992188 2.34375 81.234375 2.34375 81.234375 C 2.34375 81.234375 2.273438 67.40625 4.398438 51.191406 C 6.253906 37.050781 10.007813 20 10.007813 20 L 8.007813 22 C 8.007813 22 5.128906 33.65625 2.007813 53 C -0.246094 69.03125 0.0078125 85 0.0078125 85 C 0.0078125 85 16.242188 97.035156 33.175781 107.835938 C 50.730469 119.027344 69.007813 129 69.007813 129 C 69.007813 129 85.238281 121.257813 101.007813 111 C 115.097656 102.597656 126.007813 94 126.007813 94 L 127.007813 91" stroke-linecap="round" />
</g>
		<g transform="matrix(1.33 0 0 1.33 -144.33 -7.54)"  >
<path style="stroke: none; stroke-width: 1; stroke-dasharray: none; stroke-linecap: butt; stroke-dashoffset: 0; stroke-linejoin: miter; stroke-miterlimit: 4; fill: rgb(255,255,255); fill-rule: evenodd; opacity: 1;" vector-effect="non-scaling-stroke"  transform=" translate(-68.01, -58.85)" d="M 35.1875 25.691406 L 32.007813 30 L 31.007813 67 L 70.007813 92 L 104.007813 73 L 105.007813 70 L 73.007813 87 L 34.007813 63 L 35.1875 25.691406" stroke-linecap="round" />
</g>
		<g transform="matrix(1.33 0 0 1.33 -140.99 -20)"  >
<path style="stroke: none; stroke-width: 1; stroke-dasharray: none; stroke-linecap: butt; stroke-dashoffset: 0; stroke-linejoin: miter; stroke-miterlimit: 4; fill: rgb(255,255,255); fill-rule: evenodd; opacity: 1;" vector-effect="non-scaling-stroke"  transform=" translate(-70.51, -49.5)" d="M 103.007813 36 L 105.007813 68 L 74.007813 84 L 36.007813 61 L 37.007813 25 L 69.007813 15 L 103.007813 36" stroke-linecap="round" />
</g>
		<g transform="matrix(1.33 0 0 1.33 -116.01 -53.91)"  >
<path style="stroke: none; stroke-width: 1; stroke-dasharray: none; stroke-linecap: butt; stroke-dashoffset: 0; stroke-linejoin: miter; stroke-miterlimit: 4; fill: rgb(255,255,255); fill-rule: nonzero; opacity: 1;" vector-effect="non-scaling-stroke"  transform=" translate(-89.25, -24.07)" d="M 108.578125 36.976563 C 108.492188 36.902344 99.765625 29.121094 90.679688 23.53125 C 80.621094 17.34375 69.003906 12.574219 68.886719 12.523438 L 69.363281 11.160156 C 69.480469 11.210938 81.195313 16.226563 91.335938 22.46875 C 100.503906 28.109375 109.519531 35.636719 109.609375 35.710938 L 108.578125 36.976563" stroke-linecap="round" />
</g>
		<g transform="matrix(1.33 0 0 1.33 -146.63 -32.08)"  >
<path style="stroke: none; stroke-width: 1; stroke-dasharray: none; stroke-linecap: butt; stroke-dashoffset: 0; stroke-linejoin: miter; stroke-miterlimit: 4; fill: rgb(255,255,255); fill-rule: evenodd; opacity: 1;" vector-effect="non-scaling-stroke"  transform=" translate(-66.28, -40.44)" d="M 68.007813 48.335938 C 75.28125 43.121094 89.394531 35.683594 96.554688 32.015625 L 69.007813 15 L 37.007813 25 L 36.007813 61 L 44.078125 65.882813 C 49.699219 61.699219 59.699219 54.289063 68.007813 48.335938" stroke-linecap="round" />
</g>
		<g transform="matrix(1.33 0 0 1.33 -136.33 -23.33)"  >
<path style="stroke: none; stroke-width: 1; stroke-dasharray: none; stroke-linecap: butt; stroke-dashoffset: 0; stroke-linejoin: miter; stroke-miterlimit: 4; fill: rgb(255,255,255); fill-rule: evenodd; opacity: 1;" vector-effect="non-scaling-stroke"  transform=" translate(-74.01, -47)" d="M 62.007813 72 L 90.007813 72 L 90.007813 61 L 88.007813 61 C 88.007813 61 87.382813 69.125 84.007813 69 C 83.007813 69 71.007813 69 71.007813 69 C 69.644531 69.144531 68.675781 67.582031 69.007813 66 L 69.007813 22 L 58.007813 23 L 58.007813 25 C 58.007813 25 61.882813 25.75 62.007813 28 C 62.132813 30.25 62.007813 72 62.007813 72" stroke-linecap="round" />
</g>
		<g transform="matrix(0.13 0 0 -0.13 -136.33 -23.33)"  >
<path style="stroke: rgb(255,255,255); stroke-width: 2.5; stroke-dasharray: none; stroke-linecap: butt; stroke-dashoffset: 0; stroke-linejoin: miter; stroke-miterlimit: 10; fill: rgb(255,255,255); fill-rule: nonzero; opacity: 1;" vector-effect="non-scaling-stroke"  transform=" translate(-740.08, -820)" d="M 620.078125 570 L 900.078125 570 L 900.078125 680 L 880.078125 680 C 880.078125 680 873.828125 598.75 840.078125 600 C 830.078125 600 710.078125 600 710.078125 600 C 696.445313 598.554688 686.757813 614.179688 690.078125 630 L 690.078125 1070 L 580.078125 1060 L 580.078125 1040 C 580.078125 1040 618.828125 1032.5 620.078125 1010 C 621.328125 987.5 620.078125 570 620.078125 570 Z M 620.078125 570" stroke-linecap="round" />
</g>
		<g transform="matrix(1.33 0 0 1.33 -33.93 -29.54)"  >
<path style="stroke: none; stroke-width: 1; stroke-dasharray: none; stroke-linecap: butt; stroke-dashoffset: 0; stroke-linejoin: miter; stroke-miterlimit: 4; fill: rgb(255,255,255); fill-rule: nonzero; opacity: 1;" vector-effect="non-scaling-stroke"  transform=" translate(-150.8, -42.35)" d="M 164.273438 54.621094 L 161.625 54.621094 L 161.601563 55.171875 C 161.476563 57.917969 161.195313 59.480469 160.753906 59.859375 C 160.308594 60.234375 158.566406 60.425781 155.523438 60.425781 L 151.671875 60.425781 C 149.429688 60.425781 148.136719 60.242188 147.796875 59.871094 C 147.457031 59.503906 147.285156 58.09375 147.285156 55.644531 L 147.285156 29.050781 C 147.285156 26.558594 147.472656 25.074219 147.839844 24.597656 C 148.210938 24.117188 149.421875 23.808594 151.46875 23.660156 L 151.949219 23.605469 L 151.949219 21.894531 L 137.332031 21.894531 L 137.332031 23.605469 L 137.808594 23.660156 C 139.84375 23.808594 141.046875 24.117188 141.425781 24.597656 C 141.804688 25.074219 141.992188 26.558594 141.992188 29.050781 L 141.992188 55.644531 C 141.992188 58.128906 141.804688 59.617188 141.425781 60.105469 C 141.046875 60.59375 139.84375 60.914063 137.808594 61.058594 L 137.332031 61.089844 L 137.332031 62.800781 L 164.273438 62.800781 L 164.273438 54.621094" stroke-linecap="round" />
</g>
		<g transform="matrix(1.33 0 0 1.33 5.45 -28.85)"  >
<path style="stroke: none; stroke-width: 1; stroke-dasharray: none; stroke-linecap: butt; stroke-dashoffset: 0; stroke-linejoin: miter; stroke-miterlimit: 4; fill: rgb(255,255,255); fill-rule: nonzero; opacity: 1;" vector-effect="non-scaling-stroke"  transform=" translate(-180.34, -42.86)" d="M 199.117188 21.894531 L 186.730469 21.894531 L 186.730469 23.605469 L 187.203125 23.660156 C 189.328125 23.808594 190.585938 24.117188 190.976563 24.597656 C 191.371094 25.074219 191.566406 26.558594 191.566406 29.050781 L 191.566406 47.765625 C 191.566406 51.316406 191.40625 53.777344 191.082031 55.15625 C 190.757813 56.539063 190.066406 57.796875 189.003906 58.9375 C 187.105469 60.960938 184.582031 61.972656 181.425781 61.972656 C 178.066406 61.972656 175.539063 60.8125 173.847656 58.496094 C 173.011719 57.335938 172.492188 56.113281 172.28125 54.828125 C 172.074219 53.539063 171.96875 50.78125 171.96875 46.546875 L 171.96875 29.050781 C 171.96875 26.539063 172.160156 25.050781 172.542969 24.582031 C 172.925781 24.113281 174.1875 23.808594 176.332031 23.660156 L 176.800781 23.605469 L 176.800781 21.894531 L 161.566406 21.894531 L 161.566406 23.605469 L 162.0625 23.660156 C 164.171875 23.808594 165.421875 24.117188 165.8125 24.597656 C 166.207031 25.074219 166.402344 26.558594 166.402344 29.050781 L 166.402344 47.488281 C 166.402344 58.378906 171.191406 63.824219 180.773438 63.824219 C 185.511719 63.824219 189.011719 62.378906 191.277344 59.484375 C 192.480469 57.957031 193.28125 56.304688 193.679688 54.535156 C 194.082031 52.769531 194.28125 49.984375 194.28125 46.1875 L 194.28125 29.050781 C 194.28125 26.539063 194.46875 25.050781 194.84375 24.582031 C 195.21875 24.113281 196.476563 23.808594 198.621094 23.660156 L 199.117188 23.605469 L 199.117188 21.894531" stroke-linecap="round" />
</g>
		<g transform="matrix(1.33 0 0 1.33 49.9 -29.54)"  >
<path style="stroke: none; stroke-width: 1; stroke-dasharray: none; stroke-linecap: butt; stroke-dashoffset: 0; stroke-linejoin: miter; stroke-miterlimit: 4; fill: rgb(255,255,255); fill-rule: nonzero; opacity: 1;" vector-effect="non-scaling-stroke"  transform=" translate(-213.68, -42.35)" d="M 203.878906 58.046875 C 207.050781 61.898438 211.394531 63.824219 216.902344 63.824219 C 221.214844 63.824219 224.996094 62.757813 228.242188 60.617188 L 228.242188 57.964844 C 224.898438 60.046875 221.75 61.089844 218.792969 61.089844 C 214.269531 61.089844 210.738281 59.425781 208.203125 56.097656 C 205.667969 52.773438 204.398438 48.144531 204.398438 42.210938 C 204.398438 36.292969 205.480469 31.566406 207.640625 28.027344 C 209.804688 24.488281 212.699219 22.722656 216.332031 22.722656 C 218.863281 22.722656 220.867188 23.242188 222.335938 24.28125 C 223.800781 25.324219 224.535156 26.746094 224.535156 28.554688 C 224.558594 29.089844 224.578125 29.632813 224.601563 30.183594 L 224.632813 30.738281 L 227.613281 30.738281 L 227.613281 22.914063 C 223.042969 21.550781 219.351563 20.867188 216.539063 20.867188 C 211.03125 20.867188 206.75 22.742188 203.695313 26.492188 C 200.644531 30.242188 199.117188 35.503906 199.117188 42.265625 C 199.117188 48.933594 200.703125 54.195313 203.878906 58.046875" stroke-linecap="round" />
</g>
		<g transform="matrix(1.33 0 0 1.33 98.34 -29.54)"  >
<path style="stroke: none; stroke-width: 1; stroke-dasharray: none; stroke-linecap: butt; stroke-dashoffset: 0; stroke-linejoin: miter; stroke-miterlimit: 4; fill: rgb(255,255,255); fill-rule: nonzero; opacity: 1;" vector-effect="non-scaling-stroke"  transform=" translate(-250.01, -42.35)" d="M 246.269531 61.089844 L 245.8125 61.058594 C 244.101563 60.929688 243.074219 60.613281 242.738281 60.105469 C 242.402344 59.601563 242.234375 58.113281 242.234375 55.644531 L 242.234375 42.125 L 252.933594 55.570313 C 255.050781 58.21875 256.09375 59.835938 256.058594 60.425781 C 256.027344 60.867188 254.984375 61.089844 252.933594 61.089844 L 252.480469 61.089844 L 252.480469 62.800781 L 267.742188 62.800781 L 267.742188 61.089844 L 267.210938 61.058594 C 265.546875 60.949219 264.402344 60.679688 263.769531 60.246094 C 263.140625 59.8125 261.71875 58.285156 259.5 55.671875 L 246.445313 39.71875 L 255.972656 29.078125 C 258.59375 26.164063 260.125 24.558594 260.570313 24.265625 C 261.015625 23.972656 262.222656 23.769531 264.1875 23.660156 L 264.617188 23.605469 L 264.617188 21.894531 L 253.132813 21.894531 L 253.132813 23.605469 L 253.585938 23.605469 C 256.023438 23.605469 257.238281 23.769531 257.238281 24.101563 C 257.238281 24.394531 256.003906 26.050781 253.535156 29.058594 L 242.234375 41.960938 L 242.234375 29.050781 C 242.234375 26.558594 242.421875 25.074219 242.789063 24.597656 C 243.160156 24.117188 244.371094 23.808594 246.417969 23.660156 L 246.898438 23.605469 L 246.898438 21.894531 L 232.28125 21.894531 L 232.28125 23.605469 L 232.757813 23.660156 C 234.792969 23.808594 235.996094 24.117188 236.375 24.597656 C 236.753906 25.074219 236.941406 26.558594 236.941406 29.050781 L 236.941406 55.644531 C 236.941406 58.128906 236.753906 59.617188 236.375 60.105469 C 235.996094 60.59375 234.792969 60.914063 232.757813 61.058594 L 232.28125 61.089844 L 232.28125 62.800781 L 246.269531 62.800781 L 246.269531 61.089844" stroke-linecap="round" />
</g>
		<g transform="matrix(1.33 0 0 1.33 148.32 -29.54)"  >
<path style="stroke: none; stroke-width: 1; stroke-dasharray: none; stroke-linecap: butt; stroke-dashoffset: 0; stroke-linejoin: miter; stroke-miterlimit: 4; fill: rgb(255,255,255); fill-rule: nonzero; opacity: 1;" vector-effect="non-scaling-stroke"  transform=" translate(-287.5, -42.35)" d="M 284.082031 60.105469 C 283.71875 60.578125 282.496094 60.894531 280.414063 61.058594 L 279.960938 61.089844 L 279.960938 62.800781 L 294.578125 62.800781 L 294.578125 61.089844 L 294.097656 61.058594 C 292.03125 60.894531 290.820313 60.578125 290.457031 60.105469 C 290.097656 59.636719 289.914063 58.148438 289.914063 55.644531 L 289.914063 44.667969 L 298.609375 29.21875 C 300.390625 26.105469 301.410156 24.425781 301.671875 24.183594 C 301.933594 23.941406 302.878906 23.769531 304.507813 23.660156 L 304.988281 23.605469 L 304.988281 21.894531 L 294.894531 21.894531 L 294.894531 23.605469 L 295.351563 23.605469 C 297.683594 23.605469 298.851563 23.917969 298.851563 24.542969 C 298.851563 25.132813 298.128906 26.703125 296.6875 29.257813 L 289.394531 42.113281 L 282.40625 29.214844 C 280.992188 26.601563 280.300781 25.03125 280.335938 24.503906 C 280.371094 23.90625 281.578125 23.605469 283.964844 23.605469 L 284.46875 23.605469 L 284.46875 21.894531 L 270.003906 21.894531 L 270.003906 23.605469 L 270.507813 23.660156 C 272.039063 23.730469 272.902344 23.863281 273.105469 24.058594 C 273.308594 24.253906 274.304688 25.976563 276.105469 29.21875 L 284.621094 44.667969 L 284.621094 55.644531 C 284.621094 58.148438 284.441406 59.636719 284.082031 60.105469" stroke-linecap="round" />
</g>
		<g transform="matrix(1.33 0 0 1.33 -33.76 29.06)"  >
<path style="stroke: none; stroke-width: 1; stroke-dasharray: none; stroke-linecap: butt; stroke-dashoffset: 0; stroke-linejoin: miter; stroke-miterlimit: 4; fill: rgb(255,255,255); fill-rule: nonzero; opacity: 1;" vector-effect="non-scaling-stroke"  transform=" translate(-150.93, -86.29)" d="M 145.316406 99.742188 C 142.71875 96.492188 141.417969 91.964844 141.417969 86.160156 C 141.417969 80.375 142.523438 75.75 144.742188 72.289063 C 146.960938 68.828125 149.929688 67.097656 153.652344 67.097656 C 156.25 67.097656 158.300781 67.609375 159.808594 68.628906 C 161.3125 69.644531 162.066406 71.039063 162.066406 72.800781 C 162.085938 73.328125 162.109375 73.855469 162.132813 74.398438 L 162.164063 74.941406 L 165.222656 74.941406 L 165.222656 67.289063 C 160.53125 65.953125 156.75 65.289063 153.867188 65.289063 C 148.21875 65.289063 143.828125 67.121094 140.695313 70.789063 C 137.566406 74.457031 136 79.597656 136 86.214844 C 136 92.738281 137.628906 97.882813 140.882813 101.652344 C 144.136719 105.417969 148.589844 107.300781 154.238281 107.300781 C 158.660156 107.300781 162.539063 106.257813 165.867188 104.164063 L 165.867188 101.570313 C 162.4375 103.605469 159.207031 104.625 156.175781 104.625 C 151.539063 104.625 147.917969 103 145.316406 99.742188" stroke-linecap="round" />
</g>
		<g transform="matrix(1.33 0 0 1.33 7.9 29.8)"  >
<path style="stroke: none; stroke-width: 1; stroke-dasharray: none; stroke-linecap: butt; stroke-dashoffset: 0; stroke-linejoin: miter; stroke-miterlimit: 4; fill: rgb(255,255,255); fill-rule: nonzero; opacity: 1;" vector-effect="non-scaling-stroke"  transform=" translate(-182.18, -86.85)" d="M 193.671875 100.308594 C 193.542969 102.742188 193.257813 104.117188 192.8125 104.441406 C 192.367188 104.765625 190.546875 104.925781 187.347656 104.925781 L 183.039063 104.925781 C 180.949219 104.925781 179.652344 104.664063 179.152344 104.136719 C 178.652344 103.613281 178.402344 102.28125 178.402344 100.144531 L 178.402344 87.179688 L 185.792969 87.179688 C 187.429688 87.179688 188.433594 87.3125 188.804688 87.578125 C 189.175781 87.84375 189.398438 88.667969 189.472656 90.058594 L 189.5 90.550781 L 191.679688 90.550781 L 191.679688 81.566406 L 189.5 81.566406 L 189.472656 82.066406 C 189.398438 83.632813 189.175781 84.503906 188.804688 84.675781 C 188.433594 84.851563 187.429688 84.941406 185.792969 84.941406 L 178.402344 84.96875 L 178.402344 68.605469 L 187.210938 68.605469 C 189.898438 68.605469 191.359375 68.707031 191.585938 68.90625 C 191.8125 69.109375 192 70.484375 192.144531 73.027344 L 192.199219 73.550781 L 195.226563 73.550781 L 195.226563 66.394531 L 167.632813 66.394531 L 167.632813 68.105469 L 168.148438 68.160156 C 170.351563 68.308594 171.65625 68.621094 172.0625 69.097656 C 172.472656 69.574219 172.675781 71.058594 172.675781 73.550781 L 172.675781 100.144531 C 172.675781 102.628906 172.472656 104.117188 172.0625 104.605469 C 171.65625 105.09375 170.351563 105.414063 168.148438 105.5625 L 167.632813 105.589844 L 167.632813 107.300781 L 196.726563 107.300781 L 196.726563 99.8125 L 193.699219 99.8125 L 193.671875 100.308594" stroke-linecap="round" />
</g>
		<g transform="matrix(1.33 0 0 1.33 117.74 29.8)"  >
<path style="stroke: none; stroke-width: 1; stroke-dasharray: none; stroke-linecap: butt; stroke-dashoffset: 0; stroke-linejoin: miter; stroke-miterlimit: 4; fill: rgb(255,255,255); fill-rule: nonzero; opacity: 1;" vector-effect="non-scaling-stroke"  transform=" translate(-264.56, -86.85)" d="M 276.050781 100.308594 C 275.921875 102.742188 275.636719 104.117188 275.191406 104.441406 C 274.746094 104.765625 272.925781 104.925781 269.726563 104.925781 L 265.417969 104.925781 C 263.328125 104.925781 262.03125 104.664063 261.53125 104.136719 C 261.03125 103.613281 260.78125 102.28125 260.78125 100.144531 L 260.78125 87.179688 L 268.171875 87.179688 C 269.808594 87.179688 270.8125 87.3125 271.183594 87.578125 C 271.554688 87.84375 271.777344 88.667969 271.851563 90.058594 L 271.878906 90.550781 L 274.058594 90.550781 L 274.058594 81.566406 L 271.878906 81.566406 L 271.851563 82.066406 C 271.777344 83.632813 271.554688 84.503906 271.183594 84.675781 C 270.8125 84.851563 269.808594 84.941406 268.171875 84.941406 L 260.78125 84.96875 L 260.78125 68.605469 L 269.589844 68.605469 C 272.277344 68.605469 273.738281 68.707031 273.964844 68.90625 C 274.191406 69.109375 274.378906 70.484375 274.523438 73.027344 L 274.578125 73.550781 L 277.605469 73.550781 L 277.605469 66.394531 L 250.011719 66.394531 L 250.011719 68.105469 L 250.527344 68.160156 C 252.730469 68.308594 254.035156 68.621094 254.441406 69.097656 C 254.851563 69.574219 255.054688 71.058594 255.054688 73.550781 L 255.054688 100.144531 C 255.054688 102.628906 254.851563 104.117188 254.441406 104.605469 C 254.035156 105.09375 252.730469 105.414063 250.527344 105.5625 L 250.011719 105.589844 L 250.011719 107.300781 L 279.105469 107.300781 L 279.105469 99.8125 L 276.078125 99.8125 L 276.050781 100.308594" stroke-linecap="round" />
</g>
		<g transform="matrix(1.33 0 0 1.33 61.8 29.8)"  >
<path style="stroke: none; stroke-width: 1; stroke-dasharray: none; stroke-linecap: butt; stroke-dashoffset: 0; stroke-linejoin: miter; stroke-miterlimit: 4; fill: rgb(255,255,255); fill-rule: nonzero; opacity: 1;" vector-effect="non-scaling-stroke"  transform=" translate(-222.6, -86.85)" d="M 223.492188 96.195313 L 210.820313 66.394531 L 198.644531 66.394531 L 198.644531 68.105469 L 199.1875 68.160156 C 201.519531 68.308594 202.898438 68.621094 203.316406 69.097656 C 203.738281 69.574219 203.949219 71.058594 203.949219 73.550781 L 203.949219 100.144531 C 203.949219 102.628906 203.734375 104.117188 203.304688 104.605469 C 202.875 105.09375 201.5 105.414063 199.1875 105.5625 L 198.644531 105.589844 L 198.644531 107.300781 L 212.40625 107.300781 L 212.40625 105.589844 L 211.863281 105.5625 C 209.550781 105.414063 208.179688 105.09375 207.746094 104.605469 C 207.316406 104.117188 207.101563 102.628906 207.101563 100.144531 L 207.101563 71.589844 L 220.226563 104.039063 L 222.351563 104.039063 L 235.632813 72.03125 L 235.632813 100.144531 C 235.632813 102.628906 235.421875 104.117188 235.003906 104.605469 C 234.582031 105.09375 233.214844 105.414063 230.902344 105.5625 L 230.386719 105.589844 L 230.386719 107.300781 L 246.558594 107.300781 L 246.558594 105.589844 L 246.015625 105.5625 C 243.699219 105.414063 242.328125 105.09375 241.898438 104.605469 C 241.46875 104.117188 241.253906 102.628906 241.253906 100.144531 L 241.253906 73.550781 C 241.253906 71.058594 241.46875 69.574219 241.898438 69.097656 C 242.328125 68.621094 243.699219 68.308594 246.015625 68.160156 L 246.558594 68.105469 L 246.558594 66.394531 L 235.890625 66.394531 L 223.492188 96.195313" stroke-linecap="round" />
</g>
		<g transform="matrix(1.33 0 0 1.33 164.58 29.43)"  >
<path style="stroke: none; stroke-width: 1; stroke-dasharray: none; stroke-linecap: butt; stroke-dashoffset: 0; stroke-linejoin: miter; stroke-miterlimit: 4; fill: rgb(255,255,255); fill-rule: nonzero; opacity: 1;" vector-effect="non-scaling-stroke"  transform=" translate(-299.69, -86.57)" d="M 306.332031 67.554688 L 306.800781 67.609375 C 308.921875 67.753906 310.175781 68.066406 310.566406 68.542969 C 310.957031 69.019531 311.152344 70.507813 311.152344 73 L 311.152344 97.601563 L 289.753906 65.839844 L 281.023438 65.839844 L 281.023438 67.554688 L 281.515625 67.609375 C 283.640625 67.753906 284.894531 68.0625 285.273438 68.53125 C 285.65625 68.996094 285.84375 70.488281 285.84375 73 L 285.84375 99.589844 C 285.84375 102.097656 285.652344 103.585938 285.269531 104.054688 C 284.886719 104.523438 283.628906 104.84375 281.492188 105.007813 L 281.023438 105.035156 L 281.023438 106.75 L 293.089844 106.75 L 293.089844 105.035156 L 292.621094 105.007813 C 290.484375 104.84375 289.222656 104.523438 288.84375 104.054688 C 288.460938 103.585938 288.269531 102.097656 288.269531 99.589844 L 288.269531 73.027344 L 311.574219 107.300781 L 313.527344 107.300781 L 313.527344 73 C 313.527344 70.507813 313.71875 69.019531 314.101563 68.542969 C 314.480469 68.066406 315.734375 67.753906 317.851563 67.609375 L 318.347656 67.554688 L 318.347656 65.839844 L 306.332031 65.839844 L 306.332031 67.554688" stroke-linecap="round" />
</g>
		<g transform="matrix(1.33 0 0 1.33 213.6 29.8)" clip-path="url(#CLIPPATH_3)"  >
<clipPath id="CLIPPATH_3" >
	<path transform="matrix(1 0 0 1 -0.2 0.15) translate(-336.26, -87)" id="clip1" d="M 320 66 L 352.511719 66 L 352.511719 108 L 320 108 Z M 320 66" stroke-linecap="round" />
</clipPath>
<path style="stroke: none; stroke-width: 1; stroke-dasharray: none; stroke-linecap: butt; stroke-dashoffset: 0; stroke-linejoin: miter; stroke-miterlimit: 4; fill: rgb(255,255,255); fill-rule: nonzero; opacity: 1;" vector-effect="non-scaling-stroke"  transform=" translate(-336.46, -86.85)" d="M 320.402344 66.394531 L 320.402344 73.882813 L 323.054688 73.882813 L 323.082031 73.332031 C 323.113281 72.648438 323.132813 71.839844 323.132813 70.898438 C 323.132813 69.644531 323.476563 68.964844 324.167969 68.851563 C 325.214844 68.6875 326.4375 68.605469 327.835938 68.605469 L 333.800781 68.605469 L 333.800781 100.144531 C 333.800781 102.59375 333.601563 104.082031 333.207031 104.605469 C 332.808594 105.132813 331.609375 105.449219 329.605469 105.5625 L 328.515625 105.589844 L 328.515625 107.300781 L 344.417969 107.300781 L 344.417969 105.589844 L 343.332031 105.5625 C 341.324219 105.449219 340.121094 105.132813 339.714844 104.605469 C 339.3125 104.082031 339.109375 102.59375 339.109375 100.144531 L 339.109375 68.605469 L 345.082031 68.605469 C 346.457031 68.605469 347.679688 68.6875 348.738281 68.851563 C 349.414063 68.964844 349.75 69.644531 349.75 70.898438 C 349.75 71.839844 349.777344 72.648438 349.824219 73.332031 L 349.851563 73.882813 L 352.507813 73.882813 L 352.507813 66.394531 L 320.402344 66.394531" stroke-linecap="round" />
</g>
</g>
</g>
</svg>